<svg xmlns="http://www.w3.org/2000/svg" width="28.504" height="28.485" viewBox="0 0 28.504 28.485">
  <g id="Group_36" data-name="Group 36" transform="translate(-173 -561.586)">
    <g id="angle-down-duotone" transform="translate(173 418.733)">
      <path id="Path_23" data-name="Path 23" d="M14.25,162.324l-5.033,5.029L.628,158.79A2.117,2.117,0,0,1,.612,155.8l.016-.016,2.012-2a2.132,2.132,0,0,1,3.015,0Z" transform="translate(0 -0.146)" fill="#c59ead" opacity="0.4"/>
      <path id="Path_24" data-name="Path 24" d="M122.131,155.626l-2.03-2.01a2.132,2.132,0,0,0-3.015,0L103.47,167.207l3.521,3.508.005.005a2.137,2.137,0,0,0,3.022-.014l12.113-12.071.016-.015A2.118,2.118,0,0,0,122.131,155.626Z" transform="translate(-94.255)" fill="#c59ead"/>
    </g>
    <g id="angle-down-duotone-2" data-name="angle-down-duotone" transform="translate(179 408.595)">
      <path id="Path_23-2" data-name="Path 23" d="M8.251,158.462l-2.914,2.912L.364,156.416a1.226,1.226,0,0,1-.009-1.733l.009-.009,1.165-1.161a1.234,1.234,0,0,1,1.746,0Z" transform="translate(0 -0.152)" fill="#c59ead" opacity="0.4"/>
      <path id="Path_24-2" data-name="Path 24" d="M114.275,154.517l-1.175-1.164a1.234,1.234,0,0,0-1.746,0l-7.884,7.87,2.038,2.031,0,0a1.238,1.238,0,0,0,1.75-.008l7.014-6.989.009-.009A1.226,1.226,0,0,0,114.275,154.517Z" transform="translate(-98.134)" fill="#c59ead"/>
    </g>
  </g>
</svg>
